/* XPM */
static char *floor_new[] = {
/* columns rows colors chars-per-pixel */
"32 32 17 1 ",
"  c #45321B",
". c #46331B",
"X c #4E371B",
"o c #50381C",
"O c #51391C",
"+ c #563C1C",
"@ c #573C1C",
"# c #583D1C",
"$ c #5A3E1C",
"% c #8B5A1E",
"& c #96601E",
"* c #96601F",
"= c #97611F",
"- c #A2671F",
"; c #A3671F",
": c #A3681F",
"> c #A4681F",
/* pixels */
"ooXoooooXoooooXoooX.XoooooXoooX.",
"&&&&&&&&&&&&&&&&&&%@%&&&&&&&&&%X",
";;;;;;;;;;;;;;;;;>&#&:;;:;;;;>&o",
";;;;;;;;;;;;;;;;;>=#&;;;;;;;;;&o",
";;:>;;;;>>;;;;;;;:&#=>>:;;:>;;&o",
"&&&=&&&&&=&&&&&&&&%#%===&&&=&&%X",
"####o####$$########o##$###o####o",
"&&&%@%&&&==&&&&&&&==&&=&=%#%=&&&",
">;>&$=>:;;;;;;;;;;;;;;;;>&#=>:;;",
";;;&#&>;;;;;;;;;;;;;;;;;>&#&>;;;",
":::&#&>>;;;;;;:>;;;;;;>;>&#&;;;;",
"&&&%@%&=&&&&&&&=&&&&&&&=&%#%&&&&",
"o###o########$#######o#$##o####$",
"X%&&==&&&&&&==&&&&&&%#%==&&&&&==",
"o&>;>;;;;;;;>;;;;;>>=#&;>>;;;;>:",
"o&>;:;;;;;;;:;;;;;;:=#&>;;;;;;;;",
"o%&&&=&&&=&=====&&&=%@%=&&&&&==&",
"o####$###$##o#####$##o##$####$$#",
"&&&&==&&===%#%=&&&==&&&&=&&&&&==",
">>:>>>>>>>>=$=>>>>>>>>>>>>>>>>>>",
"&=&&=&&=&==%#%&=&&=&&&&&&=&&&&&&",
"##$###$#o###o#######$####$####$#",
"&&==&&&%@%==&&&&&&&&=&&&==&&&&=&",
";;;>;:>=#&>>;;;;>;;;>>;;;>;;;;;>",
";;>;;;>&#=>>;;>;;;>>;;>>;;>;;;;;",
"&&==&&&%#%&&&&==&&&=&&&=&&==&&&&",
"##$#$###o#####$####$#####o##$###",
"&&=&=&&====&&&=&&=&&&&&&%@%==&&=",
";;;;>;;;;;;;;;;;>;;;;;;;=$&>>;;;",
";;;:;;;;;:;;;;;;;;;;;>;>=#&>>;;;",
"&&&&&&&&&&&&&&&&&&&&&&&=%#%&&&&&",
"ooooooooooooooooooooooooX.Xooooo"
};
