/* XPM */
static char *Kaelor_new[] = {
/* columns rows colors chars-per-pixel */
"32 32 217 2 ",
"   c black",
".  c #020100",
"X  c #020101",
"o  c #070300",
"O  c #080400",
"+  c #090400",
"@  c #090500",
"#  c #090401",
"$  c #01051D",
"%  c #02051D",
"&  c #04071E",
"*  c #0F061E",
"=  c #3E1E01",
"-  c #3D1E02",
";  c #3F1F02",
":  c #3E1E03",
">  c #3F1F03",
",  c #3F1C1C",
"<  c #2B2013",
"1  c #2D2112",
"2  c #2C2013",
"3  c #342311",
"4  c #2C252D",
"5  c #401F03",
"6  c #442001",
"7  c #452102",
"8  c #452103",
"9  c #462203",
"0  c #472203",
"q  c #462304",
"w  c #472307",
"e  c #452407",
"r  c #4A2403",
"t  c #492404",
"y  c #4E2B0B",
"u  c #532B02",
"i  c #552C01",
"p  c #542C03",
"a  c #552D03",
"s  c #562D02",
"d  c #572E03",
"f  c #562E05",
"g  c #562F06",
"h  c #582F04",
"j  c #512D0C",
"k  c #583005",
"l  c #593005",
"z  c #53281C",
"x  c #54291F",
"c  c #583512",
"v  c #5B3916",
"b  c #5C3B18",
"n  c #5E3A18",
"m  c #5D3C19",
"M  c #683C0C",
"N  c #633B16",
"B  c #673C1A",
"V  c #542920",
"C  c #413424",
"Z  c #423426",
"A  c #684215",
"S  c #694316",
"D  c #6D4216",
"F  c #6C4417",
"G  c #6A4518",
"H  c #6B4518",
"J  c #774917",
"K  c #564B38",
"L  c #574D39",
"P  c #674621",
"I  c #674824",
"U  c #684C29",
"Y  c #724E21",
"T  c #775425",
"R  c #76512C",
"E  c #7A5D36",
"W  c #B2785B",
"Q  c #AE8053",
"!  c #B38555",
"~  c #BB8955",
"^  c #BF8B55",
"/  c #B38A5E",
"(  c #B48B5E",
")  c #BB8065",
"_  c #BA8066",
"`  c #BE886E",
"'  c #AF9D6F",
"]  c #98A36B",
"[  c #BCA772",
"{  c #BCA773",
"}  c #BBA775",
"|  c #B2B572",
" . c #CD9152",
".. c #CF995E",
"X. c #D09353",
"o. c #D29554",
"O. c #E1A25F",
"+. c #E2A25E",
"@. c #CB9861",
"#. c #DDA76C",
"$. c #C0B06C",
"%. c #C0AB76",
"&. c #DDAA73",
"*. c #E4A460",
"=. c #4A12BE",
"-. c #234FB4",
";. c #244EB4",
":. c #215EB5",
">. c #225EB6",
",. c #3B0FD9",
"<. c #0B26D8",
"1. c #0B28D8",
"2. c #1224D8",
"3. c #0C3FD3",
"4. c #3F0EF7",
"5. c #0B2AF6",
"6. c #0D2BF5",
"7. c #0B2CF5",
"8. c #0D2DF5",
"9. c #0D2CF7",
"0. c #0D2DF7",
"q. c #0D2EF7",
"w. c #1328F5",
"e. c #1429F5",
"r. c #1429F7",
"t. c #253EEF",
"y. c #2C3DEE",
"u. c #4B11D8",
"i. c #4B11DA",
"p. c #6A2ED3",
"a. c #5C1FE5",
"s. c #4110F6",
"d. c #4211F7",
"f. c #4211F9",
"g. c #5D20E4",
"h. c #5326EE",
"j. c #0C44EE",
"k. c #0D46EE",
"l. c #0B46F1",
"z. c #2540EE",
"x. c #2256E8",
"c. c #4A61D7",
"v. c #4B65D7",
"b. c #4A61D8",
"n. c #4B63D8",
"m. c #13CEBF",
"M. c #10DCBB",
"N. c #38CBAC",
"B. c #24D4B9",
"V. c #0DF7BB",
"C. c #0DF7BC",
"Z. c #0CF6BE",
"A. c #3BE6A9",
"S. c #4886D5",
"D. c #0DDDC3",
"F. c #0DDAC4",
"G. c #11D9C2",
"H. c #0FEBC8",
"J. c #0EEFCC",
"K. c #10E0C2",
"L. c #12EDCA",
"P. c #0CF0CC",
"I. c #0CF0CD",
"U. c #0DF1CE",
"Y. c #0EF1CE",
"T. c #27E0C0",
"R. c #B3B8B0",
"E. c #C2B281",
"W. c #C3B483",
"Q. c #C5B684",
"!. c #D0BD85",
"~. c #C9B5AE",
"^. c #C7B0BA",
"/. c #D3C592",
"(. c #D6C690",
"). c #D7CA95",
"_. c #D7CB96",
"`. c #DCCA92",
"'. c #DCCC93",
"]. c #D8CB96",
"[. c #DACD98",
"{. c #DBCF99",
"}. c #E1D197",
"|. c #CFCEA8",
" X c #CFCFA8",
".X c #D9C1A7",
"XX c #D8C1A9",
"oX c #D8C2AA",
"OX c #D9C2AA",
"+X c #D2CDA8",
"@X c #C2C6BC",
"#X c #C4C8BE",
"$X c #D8C6B4",
"%X c #DBC8B3",
"&X c #D7C9BC",
"*X c #D7CABD",
"=X c #D7CABE",
"-X c #D8CBBD",
";X c #D9CBBD",
":X c #DACCBC",
">X c #D8CCBE",
",X c #ECDFA5",
"<X c #EFE0A5",
"1X c #EEE1A6",
"2X c #F1E4A7",
"3X c #F2E5A8",
"4X c #F3E6A9",
"5X c #AABCC3",
"6X c #BFB7C4",
"7X c #C0B7C4",
"8X c #C6BFC1",
"9X c #C6BCC2",
"0X c #C6BDC2",
"qX c #C0CDCB",
"wX c #C0CDCC",
"eX c #C0CECC",
"rX c None",
/* pixels */
"rXrXrXrXrXrXrXrXrXrXrXrXrXrXrXrXrXrXrXrXrXrXrXrXrXrXrXrXrXrXrXrX",
"rXrXrXrXrXrXrXrXrXrXrXrXrXrXrXrXrXrXrXrXrXrXrXrXrXrXrXrXrXrXrXrX",
"rXrXrXrXrXrXrXrXrXrXrXrXs s H H f s s f rXrXrXrXrXrXrXrXrXrXrXrX",
"rXrXrXrXrXrXrXrXrXrXrXs l T [ { P r r u s rXrXrXrXrXrXrXrXrXrXrX",
"rXrXrXrXrXrXrXrXrXrXrXs A %.E U } I q c g rXrXrXrXrXrXrXrXrXrXrX",
"rXrXrX9 9 rXrXrXrXrXrXs A '.W.Z /.Q.Z ' v 9 rXrXrXrXrXrXrXrXrXrX",
"rXrXrX9 9 9 rXrXrXrXrXl T }._.K _._.L E.b 9 rXrXrXrXrXrXrXrXrXrX",
"rXrXrXrX9 q rXU.rXU.rXH !.<X,X[.,X,X[.(.m rXrXrXrXrXrXrXrXrXrXrX",
"rXrXrXrXrXrXH.J.J.U.rXrX<X2X2X3X3X3X4X'.n rXrXrXrXrXrXrXrXrXrXrX",
"rXrXrXrXrXU.J.J.L.rXrXrXrX X+X+X+X+X+XrXrXrXrXrXrXrXrXrXrXrXrXrX",
"rXrXrXrXrXrXJ.U.rX$.| A.M.:.-.-.;.;.>.G.Z.Z.V.rXrXrXrXrXrXrXrXrX",
"rXrXrXrXrXJ.J.rXG.B.N.] rXv.c.c.b.b.v.S.B.K.D.F.rXrXrXrXrXrXrXrX",
"rXrXrXrXrXrXrXrXk.l.3.4 Q ~.0X0X0X0X9X0X5Xx.j.k.rXrXrXrXrXrXrXrX",
"rXrXrXrXrXrXrXrX6.9.1.$ 1 ( OX;X>X>X>X:X6Xz.7.6.rXrXrXrXrXrXrXrX",
"rXrXrXrXrXrXrXrX9.8.1.$ X 1 / oX&X&X&X>X6Xz.9.9.rXrXrXrXrXrXrXrX",
"rXrXrXrXrXrXrXrX9.9.1.$ X X < / oX$X&X;X6Xz.8.9.rXrXrXrXrXrXrXrX",
"rXrXrXrXrXrXrXrXw.w.2.$ X X X < ! &.$X;X7Xy.e.e.rXrXrXrXrXrXrXrX",
"rXrXrXrXrXrXrXrXf.s.,.% o # # # 3 ~ oX%X^.h.s.s.rXrXrXrXrXrXrXrX",
"rXrXrXrXrXrXrXrXi.i.=.z : : : : - N  ...` p.a.g.rXrXrXrXrXrXrXrX",
"rXrXrXrXrXrXrXrXV V z q : : : 9 8 - y y B W ) _ rXrXrXrXrXrXrXrX",
"rXrXrXrXrXrXrXrXM M M rXo o # rXrX# o o rXJ D R R.rXrXrXrXrXrXrX",
"rXrXrXrXrXrXrXrXX.X.o.rXX X X rXrXX X X rX . .@.@XwXrXrXrXrXrXrX",
"rXrXrXrXrXrXrXrXO.O.*.rXX X X rXrXX X X rX*.O.#.#XwXqXrXrXrXrXrX",
"rXrXrXrXrXrXrXrXrXrXrXrXX X X rXrXX X X rXrXrXrXrXwXwXwXrXrXrXrX",
"rXrXrXrXrXrXrXrXrXrXrXrXX X X rXrXX X X rXrXrXrXrXrXqXqXqXrXrXrX",
"rXrXrXrXrXrXrXrXrXrXrXrXX X X rXrXX X X rXrXrXrXrXrXrXqXqXqXrXrX",
"rXrXrXrXrXrXrXrXrXrXrXrXo o # rXrX# # # rXrXrXrXrXrXrXrXqXqXrXrX",
"rXrXrXrXrXrXrXrXrXrXrXrX: : : rXrX: : : rXrXrXrXrXrXrXrXrXrXrXrX",
"rXrXrXrXrXrXrXrXrXrXrX9 9 0 0 rXrX9 9 9 9 rXrXrXrXrXrXrXrXrXrXrX",
"rXrXrXrXrXrXrXrXrXrXrXrXrXrXrXrXrXrXrXrXrXrXrXrXrXrXrXrXrXrXrXrX",
"rXrXrXrXrXrXrXrXrXrXrXrXrXrXrXrXrXrXrXrXrXrXrXrXrXrXrXrXrXrXrXrX",
"rXrXrXrXrXrXrXrXrXrXrXrXrXrXrXrXrXrXrXrXrXrXrXrXrXrXrXrXrXrXrXrX"
};
