/* XPM */
static char *Rocket_new[] = {
/* columns rows colors chars-per-pixel */
"128 128 40 1 ",
"  c #9D1F1D",
". c #9E1F1D",
"X c #B20606",
"o c #B20607",
"O c #B90707",
"+ c #A61C1B",
"@ c #9C2120",
"# c #E80707",
"$ c #EF0507",
"% c #EF0707",
"& c #E50A0A",
"* c #F02207",
"= c #F4D807",
"- c #F5F307",
"; c #F5F507",
": c #1EB6AA",
"> c #1BB8AD",
", c #19BBAF",
"< c #0ACCBF",
"1 c #04CEC1",
"2 c #06CFC2",
"3 c #08CFC2",
"4 c #07D0C3",
"5 c #07D1C3",
"6 c #06D1C4",
"7 c #0BD0C3",
"8 c #20D3C8",
"9 c #21D4C8",
"0 c #23D4C8",
"q c #26D4C9",
"w c #3AD8CE",
"e c #BFF1EE",
"r c #D6F5F4",
"t c #D8F5F4",
"y c #D9F6F4",
"u c #EEF9F9",
"i c #F1FAFA",
"p c #F3FAFA",
"a c #F5FBFB",
"s c None",
/* pixels */
"ssssssssssssssssssssssssssssssssssssssssssssssssssssssssssssssssssssssssssssssssssssssssssssssssssssssssssssssssssssssssssssssss",
"ssssssssssssssssssssssssssssssssssssssssssssssssssssssssssssssssssssssssssssssssssssssssssssssssssssssssssssssssssssssssssssssss",
"ssssssssssssssssssssssssssssssssssssssssssssssssssssssssssssssssssssssssssssssssssssssssssssssssssssssssssssssssssssssssssssssss",
"ssssssssssssssssssssssssssssssssssssssssssssssssssssssssssssssssssssssssssssssssssssssssssssssssssssssssssssssssssssssssssssssss",
"ssssssssssssssssssssssssssssssssssssssssssssssssssssssssssssssssssssssssssssssssssssssssssssssssssssssssssssssssssssssssssssssss",
"ssssssssssssssssssssssssssssssssssssssssssssssssssssssssssssssssssssssssssssssssssssssssssssssssssssssssssssssssssssssssssssssss",
"ssssssssssssssssssssssssssssssssssssssssssssssssssssssssssssssssssssssssssssssssssssssssssssssssssssssssssssssssssssssssssssssss",
"ssssssssssssssssssssssssssssssssssssssssssssssssssssssssssssssssssssssssssssssssssssssssssssssssssssssssssssssssssssssssssssssss",
"ssssssssssssssssssssssssssssssssssssssssssssssssssssssssssssssssssssssssssssssssssssssssssssssssssssssssssssssssssssssssssssssss",
"ssssssssssssssssssssssssssssssssssssssssssssssssssssssssssssssssssssssssssssssssssssssssssssssssssssssssssssssssssssssssssssssss",
"ssssssssssssssssssssssssssssssssssssssssssssssssssssssssssssssssssssssssssssssssssssssssssssssssssssssssssssssssssssssssssssssss",
"ssssssssssssssssssssssssssssssssssssssssssssssssssssssssssssssssssssssssssssssssssssssssssssssssssssssssssssssssssssssssssssssss",
"ssssssssssssssssssssssssssssssssssssssssssssssssssssssssssssssssssssssssssssssssssssssssssssssssssssssssssssssssssssssssssssssss",
"ssssssssssssssssssssssssssssssssssssssssssssssssssssssssssssssssssssssssssssssssssssssssssssssssssssssssssssssssssssssssssssssss",
"ssssssssssssssssssssssssssssssssssssssssssssssssssssssssssssssssssssssssssssssssssssssssssssssssssssssssssssssssssssssssssssssss",
"ssssssssssssssssssssssssssssssssssssssssssssssssssssssssssssssssssssssssssssssssssssssssssssssssssssssssssssssssssssssssssssssss",
"ssssssssssssssssssssssssssssssssssssssssssssssssssssssssssssssssssssssssssssssssssssssssssssssssssssssssssssssssssssssssssssssss",
"ssssssssssssssssssssssssssssssssssssssssssssssssssssssssssssssssssssssssssssssssssssssssssssssssssssssssssssssssssssssssssssssss",
"ssssssssssssssssssssssssssssssssssssssssssssssssssssssssssssssssssssssssssssssssssssssssssssssssssssssssssssssssssssssssssssssss",
"ssssssssssssssssssssssssssssssssssssssssssssssssssssssssssssssssssssssssssssssssssssssssssssssssssssssssssssssssssssssssssssssss",
"ssssssssssssssssssssssssssssssssssssssssssssssssssssssssssssssssssssssssssssssssssssssssssssssssssssssssssssssssssssssssssssssss",
"ssssssssssssssssssssssssssssssssssssssssssssssssssssssssssssssssssssssssssssssssssssssssssssssssssssssssssssssssssssssssssssssss",
"ssssssssssssssssssssssssssssssssssssssssssssssssssssssssssssssssssssssssssssssssssssssssssssssssssssssssssssssssssssssssssssssss",
"ssssssssssssssssssssssssssssssssssssssssssssssssssssssssssssssssssssssssssssssssssssssssssssssssssssssssssssssssssssssssssssssss",
"ssssssssssssssssssssssssssssssssssssssssssssssssssssssssssssssssssssssssssssssssssssssssssssssssssssssssssssssssssssssssssssssss",
"ssssssssssssssssssssssssssssssssssssssssssssssssssssssssssssssssssssssssssssssssssssssssssssssssssssssssssssssssssssssssssssssss",
"ssssssssssssssssssssssssssssssssssssssssssssssssssssssssssssssssssssssssssssssssssssssssssssssssssssssssssssssssssssssssssssssss",
"ssssssssssssssssssssssssssssssssssssssssssssssssssssssssssssssssssssssssssssssssssssssssssssssssssssssssssssssssssssssssssssssss",
"ssssssssssssssssssssssssssssssssssssssssssssssssssssssss----ssssssssssssssssssssssssssssssssssssssssssssssssssssssssssssssssssss",
"ssssssssssssssssssssssssssssssssssssssssssssssssssssssss----ssssssssssssssssssssssssssssssssssssssssssssssssssssssssssssssssssss",
"ssssssssssssssssssssssssssssssssssssssssssssssssssssssss----ssssssssssssssssssssssssssssssssssssssssssssssssssssssssssssssssssss",
"ssssssssssssssssssssssssssssssssssssssssssssssssssssssss----ssssssssssssssssssssssssssssssssssssssssssssssssssssssssssssssssssss",
"ssssssssssssssssssssssssssssssssssssssssssssssssssssssss----ssssssssssssssssssssssssssssssssssssssssssssssssssssssssssssssssssss",
"ssssssssssssssssssssssssssssssssssssssssssssssssssssssss----ssssssssssssssssssssssssssssssssssssssssssssssssssssssssssssssssssss",
"ssssssssssssssssssssssssssssssssssssssssssssssssssssssss----ssssssssssssssssssssssssssssssssssssssssssssssssssssssssssssssssssss",
"ssssssssssssssssssssssssssssssssssssssssssssssssssssssss----ssssssssssssssssssssssssssssssssssssssssssssssssssssssssssssssssssss",
"ssssssssssssssssssssssssssssssssssssssssssssssssssssssss----ssssssssssssssssssssssssssssssssssssssssssssssssssssssssssssssssssss",
"ssssssssssssssssssssssssssssssssssssssssssssssssssssssss----ssssssssssssssssssssssssssssssssssssssssssssssssssssssssssssssssssss",
"ssssssssssssssssssssssssssssssssssssssssssssssssssssssss;;;;ssssssssssssssssssssssssssssssssssssssssssssssssssssssssssssssssssss",
"ssssssssssssssssssssssssssssssssssssssssssssssssssssssss====ssssssssssssssssssssssssssssssssssssssssssssssssssssssssssssssssssss",
"ssssssssssssssssssssssssssssssssssssssssssssssssssssssss****ssssssssssssssssssssssssssssssssssssssssssssssssssssssssssssssssssss",
"ssssssssssssssssssssssssssssssssssssssssssssssssssssssss$$%%ssssssssssssssssssssssssssssssssssssssssssssssssssssssssssssssssssss",
"ssssssssssssssssssssssssssssssssssssssssssssssssssssssss%%%%ssssssssssssssssssssssssssssssssssssssssssssssssssssssssssssssssssss",
"ssssssssssssssssssssssssssssssssssssssssssssssssssssssss%%%%ssssssssssssssssssssssssssssssssssssssssssssssssssssssssssssssssssss",
"ssssssssssssssssssssssssssssssssssssssssssssssssssss%%%%%%%%%%%%ssssssssssssssssssssssssssssssssssssssssssssssssssssssssssssssss",
"ssssssssssssssssssssssssssssssssssssssssssssssssssss%%%%%%%%%%%%ssssssssssssssssssssssssssssssssssssssssssssssssssssssssssssssss",
"ssssssssssssssssssssssssssssssssssssssssssssssssssss%%%%%%%%%%%%ssssssssssssssssssssssssssssssssssssssssssssssssssssssssssssssss",
"ssssssssssssssssssssssssssssssssssssssssssssssssssss%%%%%%%%%%%%ssssssssssssssssssssssssssssssssssssssssssssssssssssssssssssssss",
"ssssssssssssssssssssssssssssssssssssssssssssssss%%%%%%%%%%%%%%%%%%%%ssssssssssssssssssssssssssssssssssssssssssssssssssssssssssss",
"ssssssssssssssssssssssssssssssssssssssssssssssss%%%%%%%%%%%%%%%%%%%%ssssssssssssssssssssssssssssssssssssssssssssssssssssssssssss",
"ssssssssssssssssssssssssssssssssssssssssssssssss%%%%%%%%%%%%%%%%%%%%ssssssssssssssssssssssssssssssssssssssssssssssssssssssssssss",
"ssssssssssssssssssssssssssssssssssssssssssssssss%%%%%%%%%%%%%%%%%%%%ssssssssssssssssssssssssssssssssssssssssssssssssssssssssssss",
"ssssssssssssssssssssssssssssssssssssssssssss%%%%%%%%%%%%%%%%%%%%%%%%%%%%ssssssssssssssssssssssssssssssssssssssssssssssssssssssss",
"ssssssssssssssssssssssssssssssssssssssssssss%%%%%%%%%%%%%%%%%%%%%%%%%%%%ssssssssssssssssssssssssssssssssssssssssssssssssssssssss",
"ssssssssssssssssssssssssssssssssssssssssssss%%%%%%%%%%%%%%%%%%%%%%%%%%%%ssssssssssssssssssssssssssssssssssssssssssssssssssssssss",
"ssssssssssssssssssssssssssssssssssssssssssss%%%%%%%%%%%%%%%%%%%%%%%%%%%%ssssssssssssssssssssssssssssssssssssssssssssssssssssssss",
"ssssssssssssssssssssssssssssssssssssssssssss%%%%%%%%%%%%%%%%%%%%%%%%%%%%ssssssssssssssssssssssssssssssssssssssssssssssssssssssss",
"ssssssssssssssssssssssssssssssssssssssssssss%%%%%%%%%%%%%%%%%%%%%%%%%%%%ssssssssssssssssssssssssssssssssssssssssssssssssssssssss",
"ssssssssssssssssssssssssssssssssssssssssssss%%%%%%%%%%%%%%%%%%%%%%%%%%%%ssssssssssssssssssssssssssssssssssssssssssssssssssssssss",
"ssssssssssssssssssssssssssssssssssssssssssss%%%%%%%%%%%%%%%%%%%%%%%%%%%%ssssssssssssssssssssssssssssssssssssssssssssssssssssssss",
"ssssssssssssssssssssssssssssssssssssssssssss%%%%ssssssss%%%%ssssssss%%%%ssssssssssssssssssssssssssssssssssssssssssssssssssssssss",
"ssssssssssssssssssssssssssssssssssssssssssss%%%%ssssssss%%%%ssssssss%%%%ssssssssssssssssssssssssssssssssssssssssssssssssssssssss",
"ssssssssssssssssssssssssssssssssssssssssssss%%%%ssssssss%%%%ssssssss%%%%ssssssssssssssssssssssssssssssssssssssssssssssssssssssss",
"ssssssssssssssssssssssssssssssssssssssssssss%%%%ssssssss&##&ssssssss%%%%ssssssssssssssssssssssssssssssssssssssssssssssssssssssss",
"ssssssssssssssssssssssssssssssssssssiiiissssssssssss335:+OO+:633ssssssssssssiiiissssssssssssssssssssssssssssssssssssssssssssssss",
"ssssssssssssssssssssssssssssssssssssiiiissssssssssss375>.oo.>533ssssssssssssiiiissssssssssssssssssssssssssssssssssssssssssssssss",
"ssssssssssssssssssssssssssssssssssssiiiissssssssssss335>.oo.>533ssssssssssssiiiissssssssssssssssssssssssssssssssssssssssssssssss",
"ssssssssssssssssssssssssssssssssssssiiiissssssssssss335>.oo.>533ssssssssssssiiiissssssssssssssssssssssssssssssssssssssssssssssss",
"ssssssssssssssssssssssssssssssssiiiiiiiiiiiissssssss335>.oo.>533ssssssssiiiiiiiiiiiissssssssssssssssssssssssssssssssssssssssssss",
"ssssssssssssssssssssssssssssssssiiiiiiiiiiiissssssss335>.oo.>533ssssssssiiiiiiiiiiiissssssssssssssssssssssssssssssssssssssssssss",
"ssssssssssssssssssssssssssssssssiiiiiiiaiiiissssssss335>.oo.>533ssssssssiiiiaiiaiiiissssssssssssssssssssssssssssssssssssssssssss",
"ssssssssssssssssssssssssssssssssiiiuyryyuiiissssssss315>.oo.>533ssssssssiiiuyrryuiiissssssssssssssssssssssssssssssssssssssssssss",
"ssssssssssssssssssssssssssssssssiiiyw08wyiiissss3333336>.oo.>5333333ssssiiiyw08wyaiissssssssssssssssssssssssssssssssssssssssssss",
"ssssssssssssssssssssssssssssssssiiir0110raiissss3333336>.oo.>5333333ssssiiir0110riiissssssssssssssssssssssssssssssssssssssssssss",
"ssssssssssssssssssssssssssssssssiiarq110riiissss3333335>.oo.>5333333ssssiiirq110raiissssssssssssssssssssssssssssssssssssssssssss",
"ssssssssssssssssssssssssssssssssiiiy0310riiussss3333335>.oo.>5333333ssssuiar0310riiissssssssssssssssssssssssssssssssssssssssssss",
"ssssssssssssssssssssssssssssssssiiir0130riiyq1333333335>.oo.>6333333333qyair013qraiissssssssssssssssssssssssssssssssssssssssssss",
"ssssssssssssssssssssssssssssssssiiar0110riiyq1333333335>.oo.>6333333331qriar0110riiissssssssssssssssssssssssssssssssssssssssssss",
"ssssssssssssssssssssssssssssssssiiar033qriur01333333335>.oo.>53333333310yaiyq31qraiissssssssssssssssssssssssssssssssssssssssssss",
"ssssssssssssssssssssssssssssssssiiir0118errr83333333335>.oo.>53333333318erye8110riiissssssssssssssssssssssssssssssssssssssssssss",
"ssssssssssssssssssssssssssssssssiiiy01378qq83333ssss336>.oo.>573ssss33378q08731qriiissssssssssssssssssssssssssssssssssssssssssss",
"ssssssssssssssssssssssssssssssssiiirq13311133333ssss336>.oo.>517ssss333331113310raiissssssssssssssssssssssssssssssssssssssssssss",
"ssssssssssssssssssssssssssssssssiiar013333333333ssss336>.oo.>671ssss333333333310raiissssssssssssssssssssssssssssssssssssssssssss",
"ssssssssssssssssssssssssssssssssiiirq13333333333ssss336>.oo.>617ssss33333333333qriiissssssssssssssssssssssssssssssssssssssssssss",
"ssssssssssssssssssssssssssssssssiiir01333333ssssssss336>.oo.>671ssssssss33333310raiissssssssssssssssssssssssssssssssssssssssssss",
"ssssssssssssssssssssssssssssssssiiar03333333ssssssss336>.oo.>571ssssssss33333310riiissssssssssssssssssssssssssssssssssssssssssss",
"ssssssssssssssssssssssssssssssssiiar03333111ssssssss336>.oo.>617ssssssss1331331qriiissssssssssssssssssssssssssssssssssssssssssss",
"ssssssssssssssssssssssssssssssssiiir01378q0qssssssss336>.oo.>771ssssssss00007310raiissssssssssssssssssssssssssssssssssssssssssss",
"ssssssssssssssssssssssssssssssssiiar0318rrrrssssssss336> oo >533ssssssssrrye8130raiissssssssssssssssssssssssssssssssssssssssssss",
"ssssssssssssssssssssssssssssssssiiir0130ruiissssssss336> oo >633ssssssssiaayq11qriiissssssssssssssssssssssssssssssssssssssssssss",
"ssssssssssssssssssssssssssssssssiiir0130ruiissssssss335> oo >533ssssssssiiir0110raiissssssssssssssssssssssssssssssssssssssssssss",
"ssssssssssssssssssssssssssssssssiiar0310ruiissssssss335>@oo@>533ssssssssiiirq130riiissssssssssssssssssssssssssssssssssssssssssss",
"ssssssssssssssssssssssssssssssssiiar0110riiissssssss333<ssss<333ssssssssiiar011qriiissssssssssssssssssssssssssssssssssssssssssss",
"ssssssssssssssssssssssssssssssssiiirq130raiissssssss3333ssss3333ssssssssiiir0310raiissssssssssssssssssssssssssssssssssssssssssss",
"ssssssssssssssssssssssssssssssssiiar8110raiissssssss3333ssss3333ssssssssiiar0118raiissssssssssssssssssssssssssssssssssssssssssss",
"ssssssssssssssssssssssssssssssssiiiyw08wyiiissssssss3357ssss3333ssssssssiiiyw80wyiiissssssssssssssssssssssssssssssssssssssssssss",
"ssssssssssssssssssssssssssssssssiiiuyrryuiiissssssssssssssssssssssssssssiiiuyrryuiiissssssssssssssssssssssssssssssssssssssssssss",
"ssssssssssssssssssssssssssssssssiiiiaiaiiiiissssssssssssssssssssssssssssiiiiaiaiiiiissssssssssssssssssssssssssssssssssssssssssss",
"ssssssssssssssssssssssssssssssssiiiiiiiiiiiissssssssssssssssssssssssssssiiiiiiiiiiiissssssssssssssssssssssssssssssssssssssssssss",
"ssssssssssssssssssssssssssssssssiiiiiiiiiiiissssssssssssssssssssssssssssiiiiiiiiiiiissssssssssssssssssssssssssssssssssssssssssss",
"ssssssssssssssssssssssssssssssssssssssssssssssssssssssssssssssssssssssssssssssssssssssssssssssssssssssssssssssssssssssssssssssss",
"ssssssssssssssssssssssssssssssssssssssssssssssssssssssssssssssssssssssssssssssssssssssssssssssssssssssssssssssssssssssssssssssss",
"ssssssssssssssssssssssssssssssssssssssssssssssssssssssssssssssssssssssssssssssssssssssssssssssssssssssssssssssssssssssssssssssss",
"ssssssssssssssssssssssssssssssssssssssssssssssssssssssssssssssssssssssssssssssssssssssssssssssssssssssssssssssssssssssssssssssss",
"ssssssssssssssssssssssssssssssssssssssssssssssssssssssssssssssssssssssssssssssssssssssssssssssssssssssssssssssssssssssssssssssss",
"ssssssssssssssssssssssssssssssssssssssssssssssssssssssssssssssssssssssssssssssssssssssssssssssssssssssssssssssssssssssssssssssss",
"ssssssssssssssssssssssssssssssssssssssssssssssssssssssssssssssssssssssssssssssssssssssssssssssssssssssssssssssssssssssssssssssss",
"ssssssssssssssssssssssssssssssssssssssssssssssssssssssssssssssssssssssssssssssssssssssssssssssssssssssssssssssssssssssssssssssss",
"ssssssssssssssssssssssssssssssssssssssssssssssssssssssssssssssssssssssssssssssssssssssssssssssssssssssssssssssssssssssssssssssss",
"ssssssssssssssssssssssssssssssssssssssssssssssssssssssssssssssssssssssssssssssssssssssssssssssssssssssssssssssssssssssssssssssss",
"ssssssssssssssssssssssssssssssssssssssssssssssssssssssssssssssssssssssssssssssssssssssssssssssssssssssssssssssssssssssssssssssss",
"ssssssssssssssssssssssssssssssssssssssssssssssssssssssssssssssssssssssssssssssssssssssssssssssssssssssssssssssssssssssssssssssss",
"ssssssssssssssssssssssssssssssssssssssssssssssssssssssssssssssssssssssssssssssssssssssssssssssssssssssssssssssssssssssssssssssss",
"ssssssssssssssssssssssssssssssssssssssssssssssssssssssssssssssssssssssssssssssssssssssssssssssssssssssssssssssssssssssssssssssss",
"ssssssssssssssssssssssssssssssssssssssssssssssssssssssssssssssssssssssssssssssssssssssssssssssssssssssssssssssssssssssssssssssss",
"ssssssssssssssssssssssssssssssssssssssssssssssssssssssssssssssssssssssssssssssssssssssssssssssssssssssssssssssssssssssssssssssss",
"ssssssssssssssssssssssssssssssssssssssssssssssssssssssssssssssssssssssssssssssssssssssssssssssssssssssssssssssssssssssssssssssss",
"ssssssssssssssssssssssssssssssssssssssssssssssssssssssssssssssssssssssssssssssssssssssssssssssssssssssssssssssssssssssssssssssss",
"ssssssssssssssssssssssssssssssssssssssssssssssssssssssssssssssssssssssssssssssssssssssssssssssssssssssssssssssssssssssssssssssss",
"ssssssssssssssssssssssssssssssssssssssssssssssssssssssssssssssssssssssssssssssssssssssssssssssssssssssssssssssssssssssssssssssss",
"ssssssssssssssssssssssssssssssssssssssssssssssssssssssssssssssssssssssssssssssssssssssssssssssssssssssssssssssssssssssssssssssss",
"ssssssssssssssssssssssssssssssssssssssssssssssssssssssssssssssssssssssssssssssssssssssssssssssssssssssssssssssssssssssssssssssss",
"ssssssssssssssssssssssssssssssssssssssssssssssssssssssssssssssssssssssssssssssssssssssssssssssssssssssssssssssssssssssssssssssss",
"ssssssssssssssssssssssssssssssssssssssssssssssssssssssssssssssssssssssssssssssssssssssssssssssssssssssssssssssssssssssssssssssss",
"ssssssssssssssssssssssssssssssssssssssssssssssssssssssssssssssssssssssssssssssssssssssssssssssssssssssssssssssssssssssssssssssss",
"ssssssssssssssssssssssssssssssssssssssssssssssssssssssssssssssssssssssssssssssssssssssssssssssssssssssssssssssssssssssssssssssss",
"ssssssssssssssssssssssssssssssssssssssssssssssssssssssssssssssssssssssssssssssssssssssssssssssssssssssssssssssssssssssssssssssss",
"ssssssssssssssssssssssssssssssssssssssssssssssssssssssssssssssssssssssssssssssssssssssssssssssssssssssssssssssssssssssssssssssss"
};
