/* XPM */
static char *wall_new[] = {
/* columns rows colors chars-per-pixel */
"32 32 15 1 ",
"  c #11154F",
". c #1A1D4B",
"X c #131652",
"o c #1C1F51",
"O c #1C1F52",
"+ c #1C2079",
"@ c #1E2382",
"# c #1F2382",
"$ c #1E2383",
"% c #1F2383",
"& c #20258C",
"* c #21268C",
"= c #21268D",
"- c #2B2F8D",
"; c #575986",
/* pixels */
"*************=+o;-==************",
"*************=&o;-*=************",
"*************=&o;-**************",
"*************=+o;-**************",
"************==&o;-&*************",
"************==+o;-&*************",
"************==+o;-&*************",
"************==&o;-&&************",
"*************=&o;-&*************",
"*************=+o;-&*************",
"**************&o;-&*************",
"*************&+o;-&*************",
"**&&**********&.;-&&************",
"%%%%#########&+o;-&*************",
"XXXXXXXXXXXX X .;-&*************",
"%%%%########&++o;-&*************",
"==============$O;-**************",
"===%=========%$O;-**************",
"==============$O;-**************",
"=======%======$O;-**************",
"========%=====$O;-**************",
"==============$O;-**************",
"==%===========$O;-**************",
"=======%======$O;-**************",
"============%=$O;-**************",
"======%=======$O;-*=************",
"=%============$O;-==************",
"===========%==$O;-%*************",
"==============$O;-%=************",
"==%===%=======$O;-==************",
"==============$O;-==************",
"===========%==$O;-==************"
};

