/* XPM */
static char *Divine_Diamond_new[] = {
/* columns rows colors chars-per-pixel */
"32 32 124 2 ",
"   c #F50505",
".  c #F60404",
"X  c #F20807",
"o  c #D9501B",
"O  c #32F32B",
"+  c #32F32C",
"@  c #D7A319",
"#  c #CEB734",
"$  c #9DDF1B",
"%  c #CECE37",
"&  c #D8D531",
"*  c #F3E92B",
"=  c #F2EA2C",
"-  c #AF9842",
";  c #AFAE46",
":  c #1E5BB6",
">  c #2151BD",
",  c #1B63BF",
"<  c #1B79BF",
"1  c #1B7CBF",
"2  c #2F72B9",
"3  c #5D4D9A",
"4  c #1300E6",
"5  c #1303E6",
"6  c #1B65C6",
"7  c #1B6EC0",
"8  c #2B79C3",
"9  c #3C79C1",
"0  c #3175C8",
"q  c #2B5DE1",
"w  c #1D6DE3",
"e  c #1D6FE3",
"r  c #1E6EE8",
"t  c #1F6FE8",
"y  c #366BE5",
"u  c #376CE6",
"i  c #36B79F",
"p  c #1F9FB4",
"a  c #1FA1B4",
"s  c #1DABB4",
"d  c #1FAEB5",
"f  c #1FB5B3",
"g  c #1EB6B4",
"h  c #1EB7B4",
"j  c #1FB8B3",
"k  c #32B5A4",
"l  c #32B6A4",
"z  c #36BAA0",
"x  c #21A4B5",
"c  c #23A5B5",
"v  c #23A6B4",
"b  c #23A6B5",
"n  c #2BA3B8",
"m  c #30AAB9",
"M  c #22B7B0",
"N  c #2ABAB9",
"B  c #2ABBB9",
"V  c #45AAA1",
"C  c #44C0A5",
"Z  c #2A82C2",
"A  c #288BC2",
"S  c #288DC1",
"D  c #368BCA",
"F  c #0FBFDB",
"G  c #68B9D6",
"H  c #75BCD6",
"J  c #76BEDB",
"K  c #1AC2C2",
"L  c #0FC1DB",
"P  c #15C3D6",
"I  c #11C0D9",
"U  c #11C1DA",
"Y  c #15C6DA",
"T  c #16C7DB",
"R  c #15C7DC",
"E  c #16C9D8",
"W  c #11CFD9",
"Q  c #15C8DC",
"!  c #13D2D9",
"~  c #0EE3DF",
"^  c #11C0E6",
"/  c #11C4E6",
"(  c #11C5E6",
")  c #0FD3E0",
"_  c #0ED4E0",
"`  c #0FD5E5",
"'  c #0FD6E5",
"]  c #13DAE1",
"[  c #1BE8E6",
"{  c #1CEAE7",
"}  c #21E6E3",
"|  c #2AECE9",
" . c #2BEDEA",
".. c #29EEEB",
"X. c #33E5E4",
"o. c #35E8E5",
"O. c #73CED6",
"+. c #7BD5D4",
"@. c #7DD9D9",
"#. c #7DDEDC",
"$. c #67E1ED",
"%. c #7FE1ED",
"&. c #7AEDEF",
"*. c #6FF2F3",
"=. c #72F2F3",
"-. c #72F3F4",
";. c #8ACFBD",
":. c #8AD3BE",
">. c #89DBBD",
",. c #92D7C1",
"<. c #92D8C1",
"1. c #8BD9D4",
"2. c #8BD9D5",
"3. c #88D7D8",
"4. c #89D9D8",
"5. c #89D9D9",
"6. c #8FDDDA",
"7. c #8ADEDE",
"8. c #8ADFDE",
"9. c #89EFF1",
"0. c #8AEFF1",
"q. c #ACECEB",
"w. c #DAE6DA",
"e. c None",
/* pixels */
"e.e.e.e.e.e.e.e.e.e.e.e.e.e.e.e.e.e.e.e.e.e.e.e.e.e.e.e.e.e.e.e.",
"e.e.e.e.e.e.e.e.e.e.e.e.e.e.e.e.e.e.e.e.e.e.e.e.e.e.e.e.e.e.e.e.",
"e.e.e.e.e.e.e.e.e.e.e.e.e.e.e.e.e.e.e.e.e.e.e.e.e.e.e.e.e.e.e.e.",
"e.e.e.e.e.e.e.e.e.e.e.e.e.e.e.e.e.e.e.e.e.e.e.e.e.e.e.e.e.e.e.e.",
"e.e.e.e.e.e.e.e.e.e.e.e.e.e.e.e.e.e.e.e.e.e.e.e.e.e.e.e.e.e.e.e.",
"e.e.e.e.e.e.e.4 e.e.e.e.e.e.e.e.e.e.e.e.e.e.e.e.e.e.    e.e.e.e.",
"e.e.e.e.e.e.e.4 4 e.e.e.w.w.w.w.w.w.w.e.e.e.e.e.    e.e.e.e.e.e.",
"e.e.e.e.e.e.e.e.4 4 e.e.e.e.e.e.e.e.w.w.e.e.e.      e.e.e.e.e.e.",
"e.e.e.e.e.e.e.e.e.4 4 e.e.e.e.e.e.e.e.e.e.e.    e.e.e.e.e.e.e.e.",
"e.e.e.e.e.e.e.e.e.e.4 4 e.e.e.e.e.e.e.e.X   e.e.e.e.e.e.e.e.e.e.",
"e.e.e.e.e.e.e.e.e.e.e.4 e.' ) X.q.o.{ } e.e.e.e.e.e.e.e.e.e.e.e.",
"e.e.e.e.e.e.e.w.e.e.e.e.^ w 0 O.6.#.&.*.| e.e.e.e.w.e.e.e.e.e.e.",
"e.e.e.e.e.e.e.e.e.e.e./ t y H 3.5.5.8.9.-.| e.e.e.e.e.e.e.e.e.e.",
"e.e.e.e.e.w.w.e.e.e./ t y J 2.<.>.<.2.8.0.-. .e.e.e.w.e.e.e.e.e.",
"e.e.e.e.e.e.e.e.e.' w q G +.:.# $ % :.+.@.%.$.[ e.e.w.e.e.e.e.e.",
"e.e.e.e.e.w.e.e.e._ 6 > n B V o @ & C N m 9 D ] e.e.e.w.e.e.e.e.",
"e.e.e.e.e.e.e.e.e.e.F 7 : s i - 3 ; z d 2 8 T e.e.e.e.w.e.e.e.e.",
"e.e.e.e.e.w.e.e.e.e.e.L 7 a M k v k M v Z T e.e.e.e.e.e.e.e.e.e.",
"e.e.e.e.e.e.e.e.e.e.e.e.P 7 a h j h v A Q e.e.e.e.e.e.w.e.e.e.e.",
"e.e.e.e.e.w.w.e.e.e.e.= e.L < a h v A E e.e.e.e.e.e.e.e.e.e.e.e.",
"e.e.e.e.e.e.e.e.e.e.* e.e.e.U 1 v A Q e.+ e.e.e.e.e.e.e.e.e.e.e.",
"e.e.e.e.e.e.e.e.e.* e.e.e.e.e.W K ! e.e.+ + e.e.e.e.e.e.e.e.e.e.",
"e.e.e.e.e.e.e.e.* e.e.e.e.e.e.e.~ e.e.e.e.+ + O e.e.e.e.e.e.e.e.",
"e.e.e.e.e.e.e.* * e.e.e.e.e.e.e.e.e.e.e.e.e.e.+ O e.e.e.e.e.e.e.",
"e.e.e.e.e.* * * e.e.e.e.w.e.e.e.e.e.e.w.w.e.e.e.O e.e.e.e.e.e.e.",
"e.e.e.e.* * e.e.e.e.e.e.e.e.e.w.w.w.w.w.e.e.e.e.e.e.e.e.e.e.e.e.",
"e.e.e.e.e.e.e.e.e.e.e.e.e.e.e.e.e.e.e.e.e.e.e.e.e.e.e.e.e.e.e.e.",
"e.e.e.e.e.e.e.e.e.e.e.e.e.e.e.e.e.e.e.e.e.e.e.e.e.e.e.e.e.e.e.e.",
"e.e.e.e.e.e.e.e.e.e.e.e.e.e.e.e.e.e.e.e.e.e.e.e.e.e.e.e.e.e.e.e.",
"e.e.e.e.e.e.e.e.e.e.e.e.e.e.e.e.e.e.e.e.e.e.e.e.e.e.e.e.e.e.e.e.",
"e.e.e.e.e.e.e.e.e.e.e.e.e.e.e.e.e.e.e.e.e.e.e.e.e.e.e.e.e.e.e.e.",
"e.e.e.e.e.e.e.e.e.e.e.e.e.e.e.e.e.e.e.e.e.e.e.e.e.e.e.e.e.e.e.e."
};
