/* XPM */
static char *Rocket_new[] = {
/* columns rows colors chars-per-pixel */
"32 32 44 1 ",
"  c #863A37",
". c #873A37",
"X c #883835",
"o c #823F3C",
"O c #903633",
"+ c #DF0F0E",
"@ c #EF0606",
"# c #EF0607",
"$ c #EF0707",
"% c #F10606",
"& c #F00707",
"* c #F02207",
"= c #F4D707",
"- c #F5F307",
"; c #F5F507",
": c #1EB5AA",
"> c #23B0A5",
", c #20B2A7",
"< c #21B2A7",
"1 c #20B3A7",
"2 c #0CCABE",
"3 c #05D0C3",
"4 c #04D1C3",
"5 c #0CD0C3",
"6 c #1AD2C6",
"7 c #1CD3C7",
"8 c #25D4C9",
"9 c #29D5CA",
"0 c #3ED9CF",
"q c #58DED5",
"w c #59DED5",
"e c #A4ECE7",
"r c #B7EFEC",
"t c #CFF4F2",
"y c #D1F4F2",
"u c #D3F4F3",
"i c #D3F5F3",
"p c #D5F5F3",
"a c #D9F6F4",
"s c #DCF6F5",
"d c #ECF9F9",
"f c #EDF9F9",
"g c #F3FBFB",
"h c None",
/* pixels */
"hhhhhhhhhhhhhhhhhhhhhhhhhhhhhhhh",
"hhhhhhhhhhhhhhhhhhhhhhhhhhhhhhhh",
"hhhhhhhhhhhhhhhhhhhhhhhhhhhhhhhh",
"hhhhhhhhhhhhhhhhhhhhhhhhhhhhhhhh",
"hhhhhhhhhhhhhhhhhhhhhhhhhhhhhhhh",
"hhhhhhhhhhhhhhhhhhhhhhhhhhhhhhhh",
"hhhhhhhhhhhhhhhhhhhhhhhhhhhhhhhh",
"hhhhhhhhhhhhhh;hhhhhhhhhhhhhhhhh",
"hhhhhhhhhhhhhh;hhhhhhhhhhhhhhhhh",
"hhhhhhhhhhhhhh=hhhhhhhhhhhhhhhhh",
"hhhhhhhhhhhhhh*hhhhhhhhhhhhhhhhh",
"hhhhhhhhhhhhh$$$hhhhhhhhhhhhhhhh",
"hhhhhhhhhhhh$$$$$hhhhhhhhhhhhhhh",
"hhhhhhhhhhh@$$$$$$hhhhhhhhhhhhhh",
"hhhhhhhhhhh@$&&$$$hhhhhhhhhhhhhh",
"hhhhhhhhhhh@hh$hh$hhhhhhhhhhhhhh",
"hhhhhhhhhghhh<O<hhhghhhhhhhhhhhh",
"hhhhhhhhfsfhh<.1hhfsfhhhhhhhhhhh",
"hhhhhhhhuqph3:X:4hiwihhhhhhhhhhh",
"hhhhhhhht0e83:X:48e0thhhhhhhhhhh",
"hhhhhhhhu965h<.<h569ihhhhhhhhhhh",
"hhhhhhhhu87hh<.<hh79ihhhhhhhhhhh",
"hhhhhhhhu0rhh:o:hhr0thhhhhhhhhhh",
"hhhhhhhhuqphh2h5hhpwihhhhhhhhhhh",
"hhhhhhhhfafhhhhhhhfafhhhhhhhhhhh",
"hhhhhhhhhhhhhhhhhhhhhhhhhhhhhhhh",
"hhhhhhhhhhhhhhhhhhhhhhhhhhhhhhhh",
"hhhhhhhhhhhhhhhhhhhhhhhhhhhhhhhh",
"hhhhhhhhhhhhhhhhhhhhhhhhhhhhhhhh",
"hhhhhhhhhhhhhhhhhhhhhhhhhhhhhhhh",
"hhhhhhhhhhhhhhhhhhhhhhhhhhhhhhhh",
"hhhhhhhhhhhhhhhhhhhhhhhhhhhhhhhh"
};
